<svg xmlns="http://www.w3.org/2000/svg" viewBox="0 0 100 100"><title>周易潇潇</title><rect x="2" y="2" width="96" height="96" rx="7" fill="#C4351C"/><path fill="#F6EFE2" d="M57.4 8.4L57.4 7.9L57.4 5.9L64.9 8.4L63.9 8.4L63.9 22.2Q63.9 25.4 63.7 28.9Q63.4 32.3 62.3 35.7Q61.3 39.1 59 42.2Q56.8 45.3 52.8 47.8L52.4 47.4Q54.8 43.8 55.8 39.6Q56.8 35.4 57.1 31Q57.4 26.6 57.4 22.2L57.4 8.4ZM60.6 8.4L87.8 8.4L87.8 9.7L60.6 9.7L60.6 8.4ZM84.8 8.4L84.3 8.4L87.3 5L93.4 9.8Q93.1 10.1 92.7 10.4Q92.2 10.6 91.5 10.8L91.5 40.5Q91.5 42.7 91 44.2Q90.5 45.7 88.8 46.6Q87.2 47.4 83.7 47.8Q83.6 46.1 83.4 45Q83.2 43.8 82.8 43.2Q82.3 42.4 81.6 41.9Q80.9 41.4 79.3 41L79.3 40.5Q79.3 40.5 79.9 40.5Q80.4 40.6 81.3 40.6Q82.1 40.6 82.9 40.7Q83.6 40.7 83.9 40.7Q84.5 40.7 84.6 40.5Q84.8 40.2 84.8 39.8L84.8 8.4ZM64.7 16.1L77.5 16.1L79.9 13.2Q79.9 13.2 80.6 13.7Q81.4 14.3 82.5 15.1Q83.5 15.9 84.4 16.6Q84.2 17.4 83.1 17.4L65.1 17.4L64.7 16.1ZM64.2 23L77.4 23L80 19.8Q80 19.8 80.8 20.4Q81.6 21 82.8 21.9Q83.9 22.8 84.8 23.6Q84.6 24.3 83.6 24.3L64.5 24.3L64.2 23ZM70.6 10.5L77.9 11.1Q77.8 11.5 77.6 11.8Q77.3 12.1 76.6 12.2L76.6 23.4L70.6 23.4L70.6 10.5ZM68.5 35.8L79 35.8L79 37.1L68.5 37.1L68.5 35.8ZM65.5 28L65.5 25.7L65.5 25.7L71.6 28L78.8 28L78.8 29.3L71.4 29.3L71.4 39.8Q71.4 40.1 70.7 40.5Q69.9 40.9 68.8 41.3Q67.6 41.6 66.4 41.6L65.5 41.6L65.5 28ZM76.2 28L75.7 28L78.4 25.2L83.8 29.3Q83.6 29.5 83.2 29.7Q82.8 30 82.1 30.1L82.1 38.6Q82.1 38.8 81.3 39.2Q80.5 39.6 79.4 39.9Q78.2 40.2 77.2 40.2L76.2 40.2L76.2 28ZM62.8 61.1L85.7 61.1L85.7 62.4L62.8 62.4L62.8 61.1ZM62.8 68.1L85.7 68.1L85.7 69.4L62.8 69.4L62.8 68.1ZM81.5 54.4L81 54.4L83.9 51.1L90 55.7Q89.8 56 89.3 56.3Q88.9 56.6 88.2 56.7L88.2 70.5Q88.2 70.7 87.2 71Q86.3 71.4 85 71.7Q83.7 72 82.6 72L81.5 72L81.5 54.4ZM60 54.4L60 51.7L60 51.7L66.9 54.4L85.6 54.4L85.6 55.7L66.5 55.7L66.5 70.6Q66.5 70.9 65.7 71.4Q64.8 71.9 63.6 72.2Q62.3 72.6 60.9 72.6L60 72.6L60 54.4ZM64.2 75.1L87.7 75.1L87.7 76.4L63 76.4L64.2 75.1ZM68.6 75.1L75.9 75.1L75.9 75.8Q73 80.9 67.5 84.6Q61.9 88.4 54.7 90.7L54.4 90.1Q57.6 88.3 60.4 85.8Q63.1 83.4 65.2 80.6Q67.3 77.8 68.6 75.1ZM76.5 75.1L84.1 75.1L84.1 75.8Q81.5 82.7 75.6 87.5Q69.7 92.3 60.3 94.9L60 94.4Q66.5 91.2 70.6 86.1Q74.8 81 76.5 75.1ZM85.7 75.1L85.2 75.1L88.6 71.9L94.4 76.7Q94.1 77 93.6 77.3Q93.2 77.5 92.4 77.6Q91.8 81.9 90.9 85.1Q90.1 88.2 88.9 90.2Q87.7 92.2 86.1 93.2Q84.7 94.1 83 94.5Q81.4 94.9 79.2 94.9Q79.2 93.5 79 92.3Q78.8 91.2 78.2 90.5Q77.6 89.7 76.6 89.2Q75.6 88.6 74 88.3L74 87.8Q75 87.9 76.2 87.9Q77.4 88 78.4 88Q79.4 88.1 79.9 88.1Q80.5 88.1 80.9 88Q81.3 87.9 81.7 87.7Q82.5 87.1 83.2 85.4Q84 83.8 84.6 81.1Q85.3 78.5 85.7 75.1ZM71.2 72.7Q69.3 74.8 66.5 76.9Q63.7 78.9 60.2 80.6Q56.8 82.3 52.8 83.3L52.5 83Q55.4 81.1 57.8 78.6Q60.2 76.1 62 73.5Q63.8 70.9 64.8 68.7L73.6 71.7Q73.4 72.1 72.9 72.4Q72.4 72.7 71.2 72.7ZM6.9 33.5Q7.4 33.5 7.7 33.4Q8 33.3 8.3 32.6Q8.7 32.1 8.9 31.6Q9.2 31.1 9.6 30.1Q10 29.2 10.9 27.3Q11.7 25.4 13.1 22.2Q14.5 18.9 16.7 13.8L17.4 13.9Q16.9 15.4 16.5 17.4Q16 19.3 15.5 21.4Q15 23.5 14.5 25.4Q14 27.2 13.7 28.7Q13.4 30.2 13.3 30.9Q13 32 12.8 33.2Q12.7 34.4 12.7 35.2Q12.8 36.6 13.3 37.7Q13.9 38.8 14.4 40.2Q14.9 41.6 14.8 43.8Q14.7 45.6 13.5 46.7Q12.3 47.9 10.5 47.9Q9.6 47.9 8.8 47.4Q7.9 46.8 7.6 45.5Q8.1 43 8.2 40.8Q8.2 38.6 8 37Q7.8 35.5 7.3 35.1Q6.8 34.7 6.2 34.6Q5.6 34.4 4.9 34.3L4.9 33.5Q4.9 33.5 5.3 33.5Q5.7 33.5 6.2 33.5Q6.7 33.5 6.9 33.5ZM4.2 15.4Q7.6 15.7 9.5 16.5Q11.4 17.4 12.1 18.5Q12.8 19.7 12.7 20.8Q12.5 22 11.7 22.7Q10.9 23.5 9.6 23.6Q8.4 23.7 7 22.7Q6.8 20.8 5.8 18.9Q4.9 17 3.9 15.7L4.2 15.4ZM6.6 4.7Q10.2 4.9 12.3 5.8Q14.4 6.8 15.2 8Q16.1 9.3 15.9 10.5Q15.8 11.7 14.9 12.6Q14.1 13.4 12.8 13.5Q11.5 13.6 10 12.7Q9.8 11.2 9.1 9.8Q8.5 8.4 7.8 7.2Q7 5.9 6.3 4.9L6.6 4.7ZM29.1 33.8Q28.9 34.2 28.4 34.4Q28 34.6 27.2 34.5Q26.5 36.9 25.4 39.2Q24.2 41.4 22.3 42.9L21.6 42.6Q22.5 40.3 22.9 37.3Q23.3 34.4 23.3 31.4L29.1 33.8ZM33.8 32Q36.3 33.9 37.3 35.7Q38.4 37.5 38.4 39.1Q38.4 40.6 37.8 41.5Q37.1 42.4 36.2 42.5Q35.2 42.6 34.2 41.5Q34.4 40 34.3 38.3Q34.1 36.7 33.9 35.1Q33.6 33.5 33.2 32.2L33.8 32ZM35 13.1Q34.9 13.5 34.6 13.9Q34.2 14.2 33.4 14.3L33.4 28L32.5 28L32.5 28.1L32.7 28.1L32.7 46.2Q32.7 46.4 32.1 46.8Q31.5 47.1 30.6 47.4Q29.7 47.7 28.7 47.7L27.9 47.7L27.9 28.1L28.2 28.1L28.2 28L27.3 28L27.3 12.4L35 13.1ZM21.9 8.8L21.9 3.7L28.8 4.3Q28.7 4.7 28.4 5.1Q28.1 5.4 27.3 5.5L27.3 8.8L34.6 8.8L34.6 3.7L41.5 4.3Q41.4 4.7 41.1 5.1Q40.8 5.4 40 5.5L40 8.8L40.9 8.8L43.1 5.5Q43.1 5.5 43.7 6.1Q44.4 6.7 45.4 7.6Q46.3 8.4 47.2 9.3Q47 10 46 10L40 10L40 12.5Q40 12.7 38.9 13.1Q37.9 13.5 35.4 13.5L34.6 13.5L34.6 10L27.3 10L27.3 12.7Q27.3 12.8 26.3 13.3Q25.2 13.7 22.9 13.7L21.9 13.7L21.9 10L16.9 10L16.6 8.8L21.9 8.8ZM23.5 30.1Q23.5 30.6 23.1 30.9Q22.8 31.2 22 31.3L22 35.6Q22 37.6 21.4 39.9Q20.8 42.1 19.3 44.2Q17.8 46.2 14.9 47.6L14.4 47.2Q15.6 45.5 16.2 43.5Q16.8 41.5 16.9 39.5Q17.1 37.4 17.1 35.6L17.1 29.5L23.5 30.1ZM36.9 16L39.2 13.7L43.8 17.1Q43.4 17.5 42.7 17.6L42.7 29.1Q42.7 29.3 41.9 29.6Q41.2 30 40.1 30.2Q39.1 30.5 38.2 30.5L37.3 30.5L37.3 16L36.9 16ZM38.8 27.3L38.8 28.6L19.3 28.6L18.9 27.3L38.8 27.3ZM39.6 16L39.6 17.3L19.9 17.3L19.5 16L39.6 16ZM45.1 30.6Q45.1 31.1 44.8 31.3Q44.5 31.6 43.8 31.7L43.8 46Q43.8 46.1 43.1 46.5Q42.4 46.8 41.3 47Q40.3 47.3 39.3 47.3L38.3 47.3L38.3 30L45.1 30.6ZM44.2 18.3Q44.2 18.3 44.9 18.9Q45.5 19.6 46.4 20.4Q47.2 21.3 47.9 22Q47.7 22.8 46.7 22.8L16.4 22.8L16 21.5L42.1 21.5L44.2 18.3ZM6.9 80.5Q7.4 80.5 7.7 80.4Q8 80.3 8.3 79.6Q8.7 79.1 8.9 78.6Q9.2 78.1 9.6 77.1Q10 76.2 10.9 74.3Q11.7 72.4 13.1 69.2Q14.5 65.9 16.7 60.8L17.4 60.9Q16.9 62.4 16.5 64.4Q16 66.3 15.5 68.4Q15 70.5 14.5 72.4Q14 74.2 13.7 75.7Q13.4 77.2 13.3 77.9Q13 79 12.8 80.2Q12.7 81.4 12.7 82.2Q12.8 83.6 13.3 84.7Q13.9 85.8 14.4 87.2Q14.9 88.6 14.8 90.8Q14.7 92.6 13.5 93.7Q12.3 94.9 10.5 94.9Q9.6 94.9 8.8 94.4Q7.9 93.8 7.6 92.5Q8.1 90 8.2 87.8Q8.2 85.6 8 84Q7.8 82.5 7.3 82.1Q6.8 81.7 6.2 81.6Q5.6 81.4 4.9 81.3L4.9 80.5Q4.9 80.5 5.3 80.5Q5.7 80.5 6.2 80.5Q6.7 80.5 6.9 80.5ZM4.2 62.4Q7.6 62.6 9.5 63.5Q11.4 64.4 12.1 65.5Q12.8 66.7 12.7 67.8Q12.5 69 11.7 69.7Q10.9 70.5 9.6 70.6Q8.4 70.7 7 69.7Q6.8 67.8 5.8 65.9Q4.9 64 3.9 62.6L4.2 62.4ZM6.6 51.7Q10.2 51.9 12.3 52.8Q14.4 53.8 15.2 55Q16.1 56.3 15.9 57.5Q15.8 58.7 14.9 59.6Q14.1 60.4 12.8 60.5Q11.5 60.6 10 59.7Q9.8 58.2 9.1 56.8Q8.5 55.4 7.8 54.2Q7 52.9 6.3 51.9L6.6 51.7ZM29.1 80.8Q28.9 81.2 28.4 81.4Q28 81.6 27.2 81.5Q26.5 83.9 25.4 86.2Q24.2 88.4 22.3 89.9L21.6 89.6Q22.5 87.3 22.9 84.3Q23.3 81.4 23.3 78.4L29.1 80.8ZM33.8 79Q36.3 80.9 37.3 82.7Q38.4 84.5 38.4 86.1Q38.4 87.6 37.8 88.5Q37.1 89.4 36.2 89.5Q35.2 89.6 34.2 88.5Q34.4 87 34.3 85.3Q34.1 83.7 33.9 82.1Q33.6 80.5 33.2 79.2L33.8 79ZM35 60.1Q34.9 60.5 34.6 60.9Q34.2 61.2 33.4 61.3L33.4 75L32.5 75L32.5 75.1L32.7 75.1L32.7 93.2Q32.7 93.4 32.1 93.8Q31.5 94.1 30.6 94.4Q29.7 94.7 28.7 94.7L27.9 94.7L27.9 75.1L28.2 75.1L28.2 75L27.3 75L27.3 59.4L35 60.1ZM21.9 55.7L21.9 50.7L28.8 51.3Q28.7 51.7 28.4 52.1Q28.1 52.4 27.3 52.5L27.3 55.7L34.6 55.7L34.6 50.7L41.5 51.3Q41.4 51.7 41.1 52.1Q40.8 52.4 40 52.5L40 55.7L40.9 55.7L43.1 52.5Q43.1 52.5 43.7 53.1Q44.4 53.7 45.4 54.6Q46.3 55.4 47.2 56.3Q47 57 46 57L40 57L40 59.5Q40 59.7 38.9 60.1Q37.9 60.5 35.4 60.5L34.6 60.5L34.6 57L27.3 57L27.3 59.7Q27.3 59.8 26.3 60.3Q25.2 60.7 22.9 60.7L21.9 60.7L21.9 57L16.9 57L16.6 55.7L21.9 55.7ZM23.5 77.1Q23.5 77.6 23.1 77.9Q22.8 78.2 22 78.3L22 82.6Q22 84.6 21.4 86.9Q20.8 89.1 19.3 91.2Q17.8 93.2 14.9 94.6L14.4 94.2Q15.6 92.5 16.2 90.5Q16.8 88.5 16.9 86.5Q17.1 84.4 17.1 82.6L17.1 76.5L23.5 77.1ZM36.9 63L39.2 60.7L43.8 64.1Q43.4 64.5 42.7 64.6L42.7 76.1Q42.7 76.3 41.9 76.6Q41.2 77 40.1 77.2Q39.1 77.5 38.2 77.5L37.3 77.5L37.3 63L36.9 63ZM38.8 74.3L38.8 75.6L19.3 75.6L18.9 74.3L38.8 74.3ZM39.6 63L39.6 64.3L19.9 64.3L19.5 63L39.6 63ZM45.1 77.6Q45.1 78.1 44.8 78.3Q44.5 78.6 43.8 78.7L43.8 93Q43.8 93.1 43.1 93.5Q42.4 93.8 41.3 94Q40.3 94.3 39.3 94.3L38.3 94.3L38.3 77L45.1 77.6ZM44.2 65.3Q44.2 65.3 44.9 65.9Q45.5 66.6 46.4 67.4Q47.2 68.3 47.9 69Q47.7 69.8 46.7 69.8L16.4 69.8L16 68.5L42.1 68.5L44.2 65.3Z"/></svg>
