<svg xmlns="http://www.w3.org/2000/svg" viewBox="0 0 1000 408"><defs><radialGradient id="wk-u9-glow"><stop offset="0" stop-color="#FFF0D2" stop-opacity=".55"/><stop offset=".45" stop-color="#D8D0C0" stop-opacity=".16"/><stop offset="1" stop-color="#D8D0C0" stop-opacity="0"/></radialGradient><radialGradient id="wk-u9-gold"><stop offset="0" stop-color="#F2B45A" stop-opacity=".7"/><stop offset="1" stop-color="#F2B45A" stop-opacity="0"/></radialGradient><radialGradient id="wk-u9-vig" cx=".42" cy=".45" r=".75"><stop offset="0" stop-color="#FFF0D2" stop-opacity=".045"/><stop offset="1" stop-color="#000" stop-opacity=".25"/></radialGradient><linearGradient id="wk-u9-fog" x1="0" x2="1"><stop offset="0" stop-color="#D8D0C0" stop-opacity="0"/><stop offset="1" stop-color="#D8D0C0" stop-opacity=".12"/></linearGradient><pattern id="wk-u9-hatch" width="7" height="7" patternUnits="userSpaceOnUse" patternTransform="rotate(38)"><line x1="0" y1="0" x2="0" y2="7" stroke="#D8D0C0" stroke-opacity=".13" stroke-width="1"/></pattern><pattern id="wk-u9-hatch2" width="5" height="5" patternUnits="userSpaceOnUse" patternTransform="rotate(-50)"><line x1="0" y1="0" x2="0" y2="5" stroke="#FF5A36" stroke-opacity=".22" stroke-width="1"/></pattern><filter id="wk-u9-blur" x="-10%" y="-40%" width="120%" height="180%"><feGaussianBlur stdDeviation="3.2"/></filter><filter id="wk-u9-bloom" x="-15%" y="-60%" width="130%" height="220%"><feGaussianBlur stdDeviation="9"/></filter></defs><rect class="wk-p-bg" width="1000" height="408" fill="#0C0B09"/><rect width="1000" height="408" fill="url(#wk-u9-vig)"/><line x1="213.4" x2="213.4" y1="22" y2="376" stroke="rgba(238,232,220,.06)"/><line x1="340.4" x2="340.4" y1="22" y2="376" stroke="rgba(238,232,220,.06)"/><line x1="467.4" x2="467.4" y1="22" y2="376" stroke="rgba(238,232,220,.06)"/><line x1="594.3" x2="594.3" y1="22" y2="376" stroke="rgba(238,232,220,.06)"/><line x1="721.3" x2="721.3" y1="22" y2="376" stroke="rgba(238,232,220,.06)"/><rect x="815.6" y="0" width="184.4" height="408" fill="url(#wk-u9-hatch)"/><rect x="815.6" y="0" width="184.4" height="408" fill="url(#wk-u9-fog)"/><line x1="815.6" x2="815.6" y1="6" y2="378" stroke="#D8D0C0" stroke-opacity=".42" stroke-dasharray="1 3"/><ellipse cx="292.5" cy="72.8" rx="176.2" ry="73.1" fill="url(#wk-u9-glow)" opacity="0.90"/><ellipse cx="477.7" cy="158.3" rx="96.7" ry="73.1" fill="url(#wk-u9-glow)" opacity="0.67"/><ellipse cx="610.6" cy="243.8" rx="102.4" ry="73.1" fill="url(#wk-u9-glow)" opacity="0.70"/><ellipse cx="674.1" cy="329.3" rx="48.9" ry="73.1" fill="url(#wk-u9-glow)" opacity="0.36"/><ellipse cx="744.6" cy="243.8" rx="114.8" ry="73.1" fill="url(#wk-u9-glow)" opacity="0.74"/><defs><path id="wk-u9-p0" d="M160.2 72.8l1.3 0.2l0.6-0.3l1.9 2l1.7 3.4l1 3.5l-0.4 5.4l-0.4-0.2l1.6-3.6l2-1.3l0.6 1.2l2.9-4.4l0.8-6.3l4.1 4.2l1.7 6l2-5.9l-1.7 2l6.6-14.9l0.6 6.6l0.5-1.4l1.7-10l1.2 6.8l1.2 0.8l1.8-3.3l2-2.2l0.4 8.1l2.6-3.3l2.7-6.7l0.2-6l5.3 0.4l2.3 2.2l-2-0.7l3.5 7.1l0.4 13.7l3.1-3l1.2 12.3l3.9 3.1l1.8-8.2l0.5 4.6l2.8-5.9l0.4-5.6l0.1-4.3l-0.3 4.9l2.9 0.4l2.1-1.4l1 9.6l4.3 4.6l4.1 6.4l-0.4-0.9l-1.1-10.2l2.1-4.6l2.2 2.5l0-1.9l4.8 7.3l1.6 2l1 1.4l-0.1 1.4l0.6 5.4l0.9-4.9l3.7 4.4l2.3-0.3l1.5 2.9l2.2-0.5l-0.2-1.5l-0.6 0.9l0.5-1l0-3l3.3-1.7l-1.7-14.1l2.6-5.1l2.7-8l2-5.9l1.4-6.1l1.5-4.5l2.2 0.4l4.3 1.6l-0.5 0.8l5.1 9.2l1.2-2l0.1-2.5l-0.2 6.1l0.2-0.3l2.4-1.4l2.4-3.4l4.9 2l-0.4 2.6l0.6 7.5l2.3 1.7l2.4 18.6l4.3-0.8l1.1-0.9l-0.9-1.1l-1.2 1.6l1.1-2l0.8 0.2l1.5-5.4l2.3-6.2l3.6-4.2l-3-2.4l1 1.5l2.8-10.6l2.6-2.2l4.4 0.6l0-5.3l-1.9-0.5l2.4-2.5l2 0.6l-0.9 0.4l-0.2 1.1l3-0.3l5.8 0.5l1.5-0.4l0.5-1.2l-0.6 0.2l3.3 1.5l1.4 4.7l3.2 0.9l2.4 8.8l1.6-7.8l-0.5 2.7l5.3 2.1l4.6 1.3l0.9 3.4l1.5-5l-0.7 10.4l-3.1-3.4l1.5 2.7l0.6 4.4l0.7-3l-0.1 2.1l5.2 0.2l1.4 1.6l-1-7.6l3.8-10l1.8 3.2l1.4 1.6l-0.1 4.2l-1.1-0.8l5.1 0.1l2 1.6l3.6-7.1l1.2 0.1l2.8-2l1.4 9.6l1.3 16l0.1-15.4l-0.2 6.5l1.8 6.4l0.9 5.8l-1.7-3.9l3.4-8.1l0.7 7.4l4.1-4.1l4.1 7.6l2.8 1.6l1.4 3.6l1.3-10.9l2.3-2.4l2 0.5l0.2-3.4l1.2-0.1l2.1 1.4l1.4-0.3l1.8-2.4l1.2-1.5l1.2-1l-0.4 1.2l-1.3-2.3l1.7-8.1l0.4 0.3l-0.3 3.1l-1.3 0.3l-0.1 9.6l-0.5-1.2l-0.4-4.4l1.3-1.1l1 6.8l-0.5 0.7l0.2-2.2l0.3 6l0.3 2.2l-0.3-2.6l0.2 2.9l0.9 8l1.3-4.4l-0.6-4.9l0.9 3l0.4 5l1-5.9l-0.6 1.8l0.1 6.8l-1.3 1.3l0.9 0.9l-0.1 6.2l1 1.2l0.5-1.1l0.6 3.7l-0.2 3.8l1.3 11.5l0.4 1.3l0.6-4.1l-0.2 8.5l-0.4 3.7l-0.8-2.2l0 7l-0.6 2.7l0.3-3l0.4 0.5l2.2 3.9l0.5 2.6l0.1-0.3l2.1 5l-1 4.7l0.3 1.5l-0.4 9.8l-0.1 5.6l0.1-3.8l-0.2-0.3l0.7-2.2l0-7l0.6-1.1l0.6 2.8l-0.8 1.8l1.5 0.3l1.7 0.6l1.9-0.6l1.3 2.1l0.6 4.7l0.8-2.8l2.5 4.2l1.8 2.6l0.5 0.7l1.6 4.1l2.5 0.7l0.9 2.2l4.5 3.6l2.8 0.2l0.7 0.2l0.8 0.4l2.7-4l1.3-12.8l1.5-8.5l1.1 1.6l1.6 8.6l0.8-6.4l-0.6-8.7l2 6.4l3.9-5.4l-3 2l2.5 6l2.4-8.1l3.7 3.2l5 2.1l-0.3 4.7l3.1-2.6l-0.1 7.7l1.2 7l1.2-2.1l-2.9-0.5l2.6-6l0.2-12.8l3.2 6.1l4.2-0.6l1.2 0.6l-0.3 1.3l2.3 9.4l1.9 3.6l-0.9 1.2l4.6-10.1l3 1.6l-0.9 2.3l0.9-6.3l1.2-8.4l0.9-4.4l-0.7 4.3l3.2 12.2l3.8-10.7l1.3-7l4.4 2.4l1.3-3.8l-1.6-4.3l2.3 5.7l-0.9 7.2l1.6-7.3l2.5 4.3l4 2.4l1.6 2.2l0.9 2.3l1.1 1l0.9-0.2l1.4-0.5l0.9-1.1l-0.8-5l1.3-2.8l0.4-1.3l0.3-5.1l3.2-4.3l-2.9 2.2l1.7 2.6l1-1.9l0.6 7.1l-0.5-4.7l-0.4 1.5l-0.4-2.5l1.9 6.5l0.7 1.6l-1.6-7.1l0.4 1.5l0.1 6.2l-1.4 3.2l-1.1 2.5l-0.3-3.2l-1.3-1.9l1.3 4.7l0.9 9.9l1.8-3.5l-2 1.3l0.5-7.2l-1 6.5l2.7 8.4l2.1 0.1l-0.1 0.7l1.7-0.5l0.7 1.6l0.3 2.2l-0.7 2.3l-0.9 6l-1.7 7.6l0.4 7.7l1.5 7.3l1.5-2.1l1.9 14.3l3.7 5.6l-0.2 2.3l-0.1 8.6l-0.6 2.9l0 0l-2.6 8.2l0.4-2.4l-0.3 3l0.8 0.1l3.2-3.9l-1.7-3.1l2.6-5.5l-0.4-2.6l-0.8 5.4l2.1 0.4l0.9 0l2.7 4.1l1.5-0.3l1.5-1.3l1.6 0l1.6-2.8l1.5-0.4l2.7-0.9l2.6 1.4l1.5-2.8l1.7-3.7l1.3-1.5l4.1-2.1l-0.4-1.2l-2-0.3l2.2-8.1l1-1.8l3.3 0.6l-1.2 3.3l0.7-1.4l0.5 1l3.2-4.2l1.8 2.5l4.6 1.6l0.8 1.1l-2.2 4.5l0.3-4.2l1-0.9l6 2.4l1.9-1l3.2 3.2l0 18.5l2.3 3.7l-0.5-2.7l3.1-4.3l3.4-16.4l2.5 0l-4.7 5.5l0.2 6.9l3.1 2.6l2.8-0.1l0.6-1.4l-0.6-1.8l3.5 1.1l2-8.9l2.6 3.6l1.1 1.1l3.2 7.6l-0.6 2.9l-2.2 8.6l-0.5-7l4.1-0.5l3.7 5.8l3.8 3.7l4.8-1.6l1.4-5.8l0 3.7l2.6-4.1l-2.1 5.8l5.1 3.2l-0.3 0.3l3.9 2.8l1.9-1.1l-1.4-4.4l2.2-2.8l2.7-0.3l2.3 0.2l0-0.8l1.3-1.5l0-0.2l1.1-2.5l1.6-2.1l0.9-2.8l-0.5 2.7l0.5-6.1l0.7-3.6l2.5 0.8l1 0.3l1.6 0l0.2 0.2l2.1-0.4l0.7 1.7l-0.4-4.4l0.2 3.1l-1.4 1.4l-0.7 3.4l-1.2 3l0.5 8.6l0.2-0.6l-0.6-1.1l0.1 2.5l0.9 2.2l-0.5 7.7l0.1 1.5l-0.4 4.8l-0.5-2.4l0.4 2.7l-0.3-2.8l0.8 2.7l0.1-1.2l-0.7 2.6l0.4 7.7l0.5 7.5l-0.5 0.9l-0.9-2.7l0.4 5.9l0.1 7.7l-0.8 1.4l0.7 4.5l0.4 5.3l-0.2 8l-0.4 3.1l1.4 4.4l-0.2-2.4l0.3 1l0.1 0.6l0.3-2.4l0.1-1.8l0.6 9l0.9 5.7l1.4 5.4l-0.7 0.2l-0.8-3.4l-0.8-2.2l0.9-2.2l-0.1 0.7l0.7-0.5l0.6-6.8l0.1 4.4" fill="none" stroke-linejoin="round" stroke-linecap="round"/></defs><use href="#wk-u9-p0" stroke="#D8D0C0" stroke-opacity="0.088" stroke-width="12" filter="url(#wk-u9-bloom)"/><use href="#wk-u9-p0" stroke="#D8D0C0" stroke-opacity="0.121" stroke-width="5" filter="url(#wk-u9-blur)"/><use href="#wk-u9-p0" stroke="#D8D0C0" stroke-opacity="0.121" stroke-width="2.2"/><use href="#wk-u9-p0" stroke="#D8D0C0" stroke-opacity="0.495" stroke-width=".95"/><defs><path id="wk-u9-p1" d="M669.1 329.3l0.8-0.3l0.8 1l0.9-0.7l0.1-0.3l0.2-8.6l-0.1 2l1 11.1l0.2-3l0.1-9.4l0.4-4l-0.7 3.1l0.3-1.4l-0.6-2l0.3-2.9l0.3-4.3l0.3-7.3l0 0.5l0-0.8l-0.5-9.2l-0.4-7.8l0.8-1.3l0.5-6.3l-0.7 0.5l0.1 3.1l-0.8-3.7l-0.2-1.8l0.6-1.8l0.1-1.8l-0.3 11.4l0.6-1.6l0.8 0.6l0.5-1.2l-1.1-2.8l0.2-2.9l-0.6-6.2l0.8-7l-0.8 1.5l0-3l1.6-0.9l-0.1-0.6l0.6-2.6l-1-0.6l0 6.5l-0.4-8.1l-0.3-3.7l0.8-4.9l0 4.3l0 1.4l0-1.8l-0.1-4l0.2 1.9l0.6 2.4l-0.8 0.8l0.1-1.3l-0.1 1.5l-0.4-2.2l0.4 1.5l-0.2 1.4l-0.4 0.4l0.2-8.3l1.6 0.7l1.4-0.1l1.4-1.5l1.8-4.1l1.8-2.1l4.4-2.4l3.1-5.4l2.3 0.5l0.3-1.1l0.6-0.4l3.6 3l-0.3 3.3l2.4-0.3l-0.7-0.2l2.4-3.3l2.2 4.1l0.5 8.2l0.8 2l-1.3 2.5l4.3 2.1l3-2l3.4 9.1l0.6 9.7l1.1 5.1l3.5-0.9l1.1 0.8l-0.6-2.9l2.9 1.6l-2.4 1.9l0.7-1.8l2.1 1.1l3.7-0.2l2.3 0.1l-1.2-0.1l1.2-0.9l1.6 0.9l3.7-1.7l-1.4-9.4l1.1-11.3l-0.6-7l3.4 4.4l-1.1 4.8l3.3 4.6l1.1-1.1l-0.7-7l2.1 9.5l2.1-17l-0.5 2l3.9 8.2l3.9 2.5l2.6-6.1l1.5-0.8l3 0.6l0.4 7.8l1.8-1.6l1.5-12.9l0.4-3.2l-0.2-3.5l-2.5 0.6l2.2 5.3l0.1 2.4l2.9 16l2.9-6.7l0.8 0l-1 0.6l-0.2-7.9l2.9 1.9l2.6-2l4.4-7.3l4.5-11l2.6 0.5l-1.1 1.1l4.4 1.3l-0.3-3.9l-0.7-4.8l-1.2 3.5l4.7-1.4l1.9-1.9l0.1-3.6l0.6 1.7l1.9 2.6l1.6 2l1.7 5.6l3 0.4l1.1 9.8l3.1 3.2l4 2.5l2-1.3l1.4-0.2l1.3 2.9l0.7-1.2l1 0.8l1.6-0.3" fill="none" stroke-linejoin="round" stroke-linecap="round"/></defs><use href="#wk-u9-p1" stroke="#FFC06E" stroke-opacity="0.160" stroke-width="12" filter="url(#wk-u9-bloom)"/><use href="#wk-u9-p1" stroke="#FFF0D2" stroke-opacity="0.220" stroke-width="5" filter="url(#wk-u9-blur)"/><use href="#wk-u9-p1" stroke="#FFF0D2" stroke-opacity="0.220" stroke-width="2.2"/><use href="#wk-u9-p1" stroke="#FFF0D2" stroke-opacity="0.900" stroke-width=".95"/><path d="M815.6 243.8l1.1 0.5l2-1.6l2.4 3.3l-0.3 3.8l2.1 6.5l0.3-3.2l0.5 1l0.8-2.6l1 0.4l2-1.2l-0.5 2.5l0.3 0.9l1.2-1.2l1 0.9l0.6-2.1l0.7-1l-0.6 2.5l-1.4-0.6l0.6 1l1 0.8l-1.1-3.8l-0.8-2.3l-1-5l-1-1.7l1.5-1.7l0.9-0.1l0.7 0.3l-1.2 1.3l-0.4-2.2l-1 0.9l-0.6 6.9l0.2 1.2l1-3.3l0.2 1.7l0.7 1.9l-0.5-1l0.2 0.5l0.1 5.2l0.6 2.1l0-7.3l1.3-1.3l1.4 0.6l0.5-1.6l0-0.2l0.4 0l1.5 0.9l0.3 3.2l1.1 3.4l0-0.8l-0.7-0.2l-0.3-1.6l-0.3 0.1l0.4 1.6l1.4 1.8l0.7-2l-1 0.5l0-1.5l0.5 4.4l-0.5-2.5l-1.7 1l1.7-1.3l-0.4 4.1l-0.5 7l-1.4-3.8l0.6 3l0.4-0.2l0.5-4.7l0.2-1.9l1 0.1l-0.7-1.9l1.1 1.3l-0.6 2.5l-0.7 0l-1.3-1.6l-1.2-2.6l-0.5-1.5l1.1 2l-0.1-0.9l0.4-0.8l1.3-0.4l0.7-1.8l0.5 0.2l0.4 0.6l-0.4 2.1l1.3 3.7l0.7 6.5l-0.2 0.4l0.5-2.5l-0.6-2.6l-0.9 0.1l0.2 1l-0.1-2l0.1-2.7l0.9 0.1l0.4 0.5l-0.9 1.4l1-3l0.5 0l0 1.9l0.2 2.3l-0.5 3.1l1.4 0.3l0.2-0.5l0.6 1.2l1.2 3.3l-1.4 1.2l0.1-1.5l0.4 4.4l-1-9l-1.4-0.6l-0.3-3.3l0.5 0.6l0 2.9l-0.5-1.2l1.9 2.6l0.6-2.4l0.1-2.2l1.2 0.1l-0.2-0.5l0.7-4.5l0.6 2.8l0.5 2.3l-0.3 3.4l1.7 1.8l2.3 6.9l-0.1-0.8l1.9-7.7l-1 2.1l-1.2 1.9l-0.3 1.7l0.4 1.1l-0.1 0.6l0-6l1.9-0.3l0-0.6l-0.1-0.3l0.1 4.2l0.5 1.2l-1 0.9l0.3-2.1l-0.3-0.1l0.2 1.5l-0.3 3l-1.1-0.8l-0.2-1.5l0 4.4l0.2-1.5l0.3-1.3l-0.1 2.9l0.7-0.7l0.6-4.5l-0.1-0.2l-0.7 2.5l0.4-2l0.7-2.1l1-5.8l-0.5 3.2l2.7 3.6l-0.2 2.4l1.1-3.3l0 3.1l0.4-1.1l1.6 0.3l1.1 0.2l0.8-2.1l-0.1 2.9l-1.4 2.5l0.4 2l2 0.9l0-8l-0.6-6.8l1-0.9" fill="none" stroke="#FFF0D2" stroke-opacity="0.85" stroke-width=".9"/><path d="M858.4 258.2l0.3 4.2l1.2-2.1l0.4-1.1l-0.9-3.4l-0.9-2l-1.6 1.3l-0.2-1.5l-1.1-1.3l0.2 4.8l0.8 4.1l0.8-0.6l0.2 2.2l-0.1-1.8l1.7 4.7l0.2 2.4l0 5.9l0.8 2.9l-0.6-0.3l0.2 2.5l0.6-1.1l1.8 1.3l0.8-0.8l0.4 0.7l0.7-1.7l-0.7 1.6l1.3-0.7l0.9-5.5l-0.4-0.2l-0.8 1.1l1.1-1.5l1.4-4.3l-1.1-1.2l-0.9-3.6l-0.2 3.9l-0.1-0.6l0.7 1.3l0.8 7l2.5-0.3l0.5 0.5l0.1-5l1.1 0.5l-0.2 1l0.8 1.5l-0.5 6l-0.8 2.2l1.3-0.6l0.6-3.1l-0.2 0.3l1.2-2.6l1.2 3.9l0.3 1.2l-2.7-1.2l0.3 1.3l0.1-2.3l-1.5 0l0.3-6.7l-0.9-1.9l2.2-2.4l0.8 2.7l0.7 0.3l-0.5-3.8l1 0.4l1.1 3.4l-0.3 4.8l-0.7 0.2l-1 1.1l0.7 0.8l0.9 1.9l-0.4 2.6l-0.4-3.2l2 0.3l0.4 6.6l0.8-7.1l0.6-3.3l0.9 0.5l0.3 1.9l-1.3 1.1l0.4 0.5l-2.1-3l-0.8-0.1l0.4 3.8l0.6 2.1l1 0.7l1.2 0.2l0.4 1.3l0 0.7l-0.7 0.6l0.8 0.8l-1.2-1.9l0.2 0.3l1.9 4.5l0.2 3l-0.6-2.5l-0.2 4.7l1.4-0.9l-0.3 0.8l0.8 9.7l2-1.9l0.3-1.8l0.3-0.5l0.5 2.6l-0.3 0.6l0.7-3l0.8 0.3l-0.6-3.7l0.3 2.2l-0.5-0.4l-1-2l0 4.5l1.2-1l0.5-2.3l0.2 0.3l-0.5-1.9l-0.6 1.6l0.5-1.7l0.8 2.6l1.2 3.3l0.6-0.5l-1-1l1.5 0.6l0.6-2.3l0-1.6l0.5 0.4l0.9 1.8l-1.4 1.4l0-1.5l-1-5.9l-0.5 0l0.3 2.6l1.4-5.5l0.1-3.8l1.1 5.3l2 2.2l0.8-2.8l0 3.2l-0.6-2l-0.1 0.7l-1.2-5.2l-1.2-0.4l-1.5-4.7l0.6 3.4l-0.1-6.1l0.6 2l-1.2 0.9l-0.5-3.2l0.1-3.9l0.8 1.9l1.5 0.7l1.5 2.9l0.3-0.4l0.2-2.3" fill="none" stroke="#FFF0D2" stroke-opacity="0.65" stroke-width=".9"/><path d="M891.7 278.3l-1.3-6.9l0.9 4.4l1.8-3.6l1.2-1.7l2.1-2l1.5-5.4l0.6-3.3l-0.5-2.3l-0.6 2.4l-0.2 0.3l1.1-0.2l1.3-8.2l0.1 3.6l0.5-0.9l1.6 3.8l0 4.5l1.1-0.9l-0.8-4.5l1.4-1.9l-0.1-1.4l0.4-2.6l1.4-2.8l-1.4-1l0.3 2.6l1.3-7.3l-0.3 2.8l0.3 4.2l0.5-2.4l-0.2 0.8l0.6 4.5l1.6-5.1l1 0.8l0.2-0.7l-0.7 3l0.4 1.6l-0.1 1.5l-1.2-2.4l1.3 1.3l-0.5 0.6l1.2 6.8l0.9-2.7l1.5 1.1l-0.1-1.7l0.9-3l1.3-8l1.2-3.8l1.2-5.9l0.3 0l1-2.3l0.1-2.4l0.1 1.5l1.3 3.5l-0.2-2l1.6-2.7l0 6l0.2-3l0 1.1l1.5-4l0.8-5.1l-0.4-0.3l-0.8 3.7l0-4.5l1.1 2l0.5-4l0.2 4.1l1.2-4.3l-0.3 0.1l1.2-2.2l1.1-5.8l-0.6 4.2l1 1.3l0.2 0.7l1.1 0.3l0.1 6.7l-0.8-2.9l1.7-0.6l0.9-5.3l1.9 4.5l-0.3 1.8l-0.4-3l1.3 2.5l-0.4 0.5l-0.7 2.9l-0.4 0.5l1.2-0.3l0.9 6.5l1.3 0.7l-0.3 3.3l0.9-0.5l1.3-1.2l0.2-2.4l0.1 2.6l1.3-0.1l0.2-2.1l0.4 3.7l-0.2 4.7l1.2-2.6l0.5-8l-2.1-1.6l0.8-1.3l-0.6 2.8l-1.2-0.6l0.8-0.1l1.1 8.7l0.5 3l0.2 0l-0.6 3.5" fill="none" stroke="#FFF0D2" stroke-opacity="0.45" stroke-width=".9"/><circle cx="160.2" cy="72.8" r="5" fill="none" stroke="#F2B45A" stroke-width="1.2"/><circle cx="160.2" cy="72.8" r="1.8" fill="#F2B45A"/><circle cx="424.9" cy="158.3" r="5" fill="none" stroke="#F2B45A" stroke-width="1.2"/><circle cx="424.9" cy="158.3" r="1.8" fill="#F2B45A"/><circle cx="552" cy="243.8" r="5" fill="none" stroke="#F2B45A" stroke-width="1.2"/><circle cx="552" cy="243.8" r="1.8" fill="#F2B45A"/><circle cx="669.1" cy="329.3" r="5" fill="none" stroke="#F2B45A" stroke-width="1.2"/><circle cx="669.1" cy="329.3" r="1.8" fill="#F2B45A"/><circle cx="669.1" cy="329.3" r="11" fill="url(#wk-u9-gold)"/><circle cx="669.1" cy="329.3" r="3" fill="#F2B45A"/><circle cx="939.4" cy="248.5" r="18" fill="url(#wk-u9-glow)"/><circle cx="939.4" cy="248.5" r="3.2" fill="#FFF0D2"/></svg>