<svg xmlns="http://www.w3.org/2000/svg" viewBox="0 0 360 150" width="360" height="150" class="fph fph-horizontal" aria-hidden="true" focusable="false"><style>.fph-ink{fill:var(--ink,#15130F)}.fph-verm{fill:var(--verm,#C4351C)}.fph-axis{stroke:var(--ink,#15130F);stroke-width:1;fill:none}.fph-tick{stroke:var(--ink-3,#6A6458);stroke-width:1}.fph-curve{stroke:var(--ink,#15130F);stroke-width:1.3;fill:none;stroke-linejoin:round}.fph-ref{stroke:var(--ink-2,#3E3A32);stroke-width:1.1;stroke-dasharray:3 3;fill:none}.fph-lab{fill:var(--ink-3,#6A6458);font:500 11px "IBM Plex Mono",ui-monospace,monospace}.fph-pk{font:500 12px "IBM Plex Mono",ui-monospace,monospace}@media (prefers-color-scheme:dark){.fph-ink{fill:var(--ink,#ECE5D6)}.fph-verm{fill:var(--verm,#FF5A36)}.fph-axis,.fph-curve{stroke:var(--ink,#ECE5D6)}.fph-tick{stroke:var(--ink-3,#9C9483)}.fph-ref{stroke:var(--ink-2,#C9C1B0)}.fph-lab{fill:var(--ink-3,#9C9483)}}</style><path class="fph-axis" d="M0 128.5H360"/><path class="fph-tick" d="M6.5 128V132"/><text class="fph-lab" x="6" y="143" text-anchor="middle">0</text><path class="fph-tick" d="M128.6 128V132"/><text class="fph-lab" x="128.1" y="143" text-anchor="middle">1k</text><path class="fph-tick" d="M250.7 128V132"/><text class="fph-lab" x="250.2" y="143" text-anchor="middle">2k</text><path class="fph-ink" fill-opacity=".82" d="M110.2 127.9h2.7v0.1h-2.7zM114.3 127.9h2.7v0.1h-2.7zM118.5 127.5h2.7v0.5h-2.7zM122.6 127.3h2.7v0.7h-2.7zM126.7 126.2h2.7v1.8h-2.7zM130.9 124.6h2.7v3.4h-2.7zM135 122.5h2.7v5.5h-2.7zM139.2 122.7h2.7v5.3h-2.7zM143.3 121.9h2.7v6.1h-2.7zM147.5 116.9h2.7v11.1h-2.7zM151.6 108.8h2.7v19.2h-2.7zM155.7 108.2h2.7v19.8h-2.7zM159.9 101.9h2.7v26.1h-2.7zM164 99.8h2.7v28.2h-2.7zM168.2 88.8h2.7v39.2h-2.7zM172.3 84.7h2.7v43.3h-2.7zM176.5 83.9h2.7v44.1h-2.7zM180.6 74.4h2.7v53.6h-2.7zM184.7 61.7h2.7v66.3h-2.7zM188.9 65.9h2.7v62.1h-2.7zM193 66.3h2.7v61.7h-2.7zM197.2 61h2.7v67h-2.7zM201.3 61.4h2.7v66.6h-2.7zM205.5 60.1h2.7v67.9h-2.7zM209.6 62.5h2.7v65.5h-2.7zM213.7 68.3h2.7v59.7h-2.7zM217.9 63.3h2.7v64.7h-2.7zM222 70.9h2.7v57.1h-2.7zM226.2 76h2.7v52h-2.7zM230.3 78.5h2.7v49.5h-2.7zM234.5 84h2.7v44h-2.7zM238.6 83.7h2.7v44.3h-2.7zM242.7 86.7h2.7v41.3h-2.7zM246.9 95.1h2.7v32.9h-2.7zM251 99h2.7v29h-2.7zM255.2 102.1h2.7v25.9h-2.7zM259.3 105h2.7v23h-2.7zM263.5 104.1h2.7v23.9h-2.7zM267.6 111.9h2.7v16.1h-2.7zM271.7 110.2h2.7v17.8h-2.7zM275.9 113h2.7v15h-2.7zM280 117.9h2.7v10.1h-2.7zM284.2 120.6h2.7v7.4h-2.7zM288.3 119.8h2.7v8.2h-2.7zM292.5 121.2h2.7v6.8h-2.7zM296.6 121.7h2.7v6.3h-2.7zM300.7 123.5h2.7v4.5h-2.7zM304.9 124.6h2.7v3.4h-2.7zM309 124.4h2.7v3.6h-2.7zM313.2 125.3h2.7v2.7h-2.7zM317.3 125.6h2.7v2.4h-2.7zM321.5 126.8h2.7v1.2h-2.7zM325.6 126.9h2.7v1.1h-2.7zM329.7 126.8h2.7v1.2h-2.7zM333.9 126.8h2.7v1.2h-2.7z"/><path class="fph-verm" d="M6.6 125.8h2.7v2.2h-2.7zM10.7 88h2.7v40h-2.7zM14.9 33.9h2.7v94.1h-2.7zM19 29.9h2.7v98.1h-2.7zM23.2 39.4h2.7v88.6h-2.7zM27.3 50.8h2.7v77.2h-2.7zM31.5 65.2h2.7v62.8h-2.7zM35.6 80.9h2.7v47.1h-2.7zM39.7 94.2h2.7v33.8h-2.7zM43.9 104.4h2.7v23.6h-2.7zM48 107.9h2.7v20.1h-2.7zM52.2 115.6h2.7v12.4h-2.7zM56.3 120.2h2.7v7.8h-2.7zM60.5 121.2h2.7v6.8h-2.7zM64.6 123.7h2.7v4.3h-2.7zM68.7 123.9h2.7v4.1h-2.7zM72.9 126.1h2.7v1.9h-2.7zM77 125.7h2.7v2.3h-2.7zM81.2 126.6h2.7v1.4h-2.7zM85.3 126.6h2.7v1.4h-2.7zM89.5 127.3h2.7v0.7h-2.7zM93.6 127.3h2.7v0.7h-2.7zM97.7 127.5h2.7v0.5h-2.7zM101.9 127.1h2.7v0.9h-2.7zM106 126.9h2.7v1.1h-2.7zM110.2 126.6h2.7v1.2h-2.7zM114.3 127.1h2.7v0.8h-2.7zM118.5 125.7h2.7v1.8h-2.7zM122.6 125.8h2.7v1.5h-2.7zM126.7 124.2h2.7v2h-2.7zM130.9 121.4h2.7v3.2h-2.7zM135 118.8h2.7v3.6h-2.7zM139.2 118.4h2.7v4.3h-2.7zM143.3 116.3h2.7v5.7h-2.7zM147.5 112.3h2.7v4.6h-2.7zM151.6 103.8h2.7v5h-2.7zM155.7 101.5h2.7v6.6h-2.7zM159.9 97.6h2.7v4.3h-2.7zM164 94.4h2.7v5.4h-2.7zM168.2 82.8h2.7v6.1h-2.7zM172.3 79.8h2.7v4.9h-2.7zM176.5 77.5h2.7v6.3h-2.7zM180.6 71.4h2.7v3h-2.7zM184.7 57.7h2.7v4.1h-2.7zM188.9 61.7h2.7v4.2h-2.7zM193 62.8h2.7v3.5h-2.7zM197.2 56.9h2.7v4.2h-2.7zM201.3 58.2h2.7v3.2h-2.7zM205.5 58.2h2.7v1.9h-2.7zM209.6 60.9h2.7v1.6h-2.7zM213.7 67.1h2.7v1.2h-2.7zM217.9 62.5h2.7v0.8h-2.7zM222 69.7h2.7v1.2h-2.7zM226.2 75.1h2.7v0.9h-2.7zM230.3 77.2h2.7v1.2h-2.7zM234.5 83.4h2.7v0.5h-2.7zM238.6 83.2h2.7v0.5h-2.7zM242.7 86.3h2.7v0.4h-2.7zM246.9 94.7h2.7v0.4h-2.7zM251 98.8h2.7v0.1h-2.7zM255.2 101.9h2.7v0.1h-2.7zM259.3 104.6h2.7v0.4h-2.7zM263.5 104h2.7v0.1h-2.7zM275.9 112.6h2.7v0.4h-2.7zM280 117.7h2.7v0.1h-2.7zM292.5 121.1h2.7v0.1h-2.7zM296.6 121.5h2.7v0.1h-2.7z"/><path class="fph-ref" d="M8.1 128L12.2 128L16.4 128L20.5 128L24.6 128L28.8 128L32.9 128L37.1 128L41.2 128L45.4 128L49.5 128L53.6 128L57.8 128L61.9 128L66.1 128L70.2 128L74.4 128L78.5 128L82.6 128L86.8 128L90.9 128L95.1 128L99.2 128L103.4 128L107.5 128L111.6 127.9L115.8 127.7L119.9 127.4L124.1 126.8L128.2 125.9L132.4 123.9L136.5 120.7L140.6 116.9L144.8 113.8L148.9 109.9L153.1 104.7L157.2 97.7L161.4 89.9L165.5 81.8L169.6 73.8L173.8 65.7L177.9 58.6L182.1 50.1L186.2 41.6L190.4 37.5L194.5 37.6L198.6 34L202.8 32.3L206.9 32L211.1 32.2L215.2 33.5L219.4 36.7L223.5 38.9L227.6 41.7L231.8 48L235.9 55.9L240.1 59.7L244.2 62L248.4 67.3L252.5 76.4L256.6 85.8L260.8 91.8L264.9 95.8L269.1 99.4L273.2 103.4L277.4 107L281.5 109.4L285.6 111.8L289.8 115L293.9 118L298.1 119.8L302.2 121.7L306.4 122.9L310.5 123.5L314.6 123.5L318.8 123.5L322.9 123.8L327.1 124.8L331.2 125.9L335.4 126.7L339.5 127.3L343.6 127.7L347.8 128L351.9 128"/><path class="fph-curve" d="M8.1 111.9L12.2 83L16.4 51.8L20.5 37.9L24.6 41.1L28.8 52.1L32.9 65.7L37.1 79.9L41.2 92.5L45.4 102L49.5 108.8L53.6 114.5L57.8 118.8L61.9 121.4L66.1 123.1L70.2 124.3L74.4 125.4L78.5 126L82.6 126.4L86.8 126.8L90.9 127.1L95.1 127.3L99.2 127.3L103.4 127.1L107.5 126.9L111.6 126.8L115.8 126.6L119.9 126L124.1 125.2L128.2 123.7L132.4 121.5L136.5 119.5L140.6 117.8L144.8 115.2L148.9 111L153.1 105.7L157.2 101.4L161.4 97.3L165.5 91.9L169.6 85.4L173.8 80.3L177.9 75.7L182.1 69.5L186.2 63.4L190.4 61.3L194.5 60.5L198.6 59L202.8 58.3L206.9 59.3L211.1 61.7L215.2 64.1L219.4 66L223.5 69.6L227.6 74L231.8 78.1L235.9 81.6L240.1 84.3L244.2 88.1L248.4 93.4L252.5 98.2L256.6 101.5L260.8 103.9L264.9 106.3L269.1 109.2L273.2 111.3L277.4 113.7L281.5 116.9L285.6 119.3L289.8 120.3L293.9 121L298.1 122L302.2 123.2L306.4 124.2L310.5 124.7L314.6 125.2L318.8 125.8L322.9 126.4L327.1 126.8L331.2 126.9L335.4 127.2L339.5 127.6L343.6 127.9L347.8 128L351.9 128"/><path class="fph-verm" d="M20.5 31.9l-3.5 -5h7z"/><text class="fph-verm fph-pk" x="20.5" y="23.9" text-anchor="middle">①</text><path class="fph-ink" d="M202.8 52.3l-3.5 -5h7z"/><text class="fph-ink fph-pk" x="202.8" y="44.3" text-anchor="middle">②</text></svg>
